<svg width="1000" height="120" viewBox="0 0 1000 120" fill="none" xmlns="http://www.w3.org/2000/svg">
  <rect width="1000" height="120" rx="12" fill="#000000"/>
  <rect x="0.5" y="0.5" width="999" height="119" rx="11.5" stroke="#27272A" stroke-opacity="0.5"/>

  <defs>
    <filter id="glow" x="-20%" y="-20%" width="140%" height="140%">
      <feGaussianBlur stdDeviation="3" result="blur" />
      <feComposite in="SourceGraphic" in2="blur" operator="over" />
    </filter>
    <filter id="grain">
      <feTurbulence type="fractalNoise" baseFrequency="0.9" numOctaves="3" result="noise"/>
      <feColorMatrix type="matrix" values="0 0 0 0 1 0 0 0 0 1 0 0 0 0 1 0 0 0 0.1 0"/>
    </filter>
    <path id="wavePath" d="M0 60 C 100 15, 150 105, 250 60 C 350 15, 400 105, 500 60 C 600 15, 650 105, 750 60 C 850 15, 900 105, 1000 60" />
    
    <g id="educationHat">
      <path d="M12 2L1 7l11 5 9-4.09V17h2V7L12 2z M4.56 10.33l6.44 2.93 6.44-2.93V14c0 2.5-2.24 4.5-5 4.5s-5-2-5-4.5v-3.67z"/>
    </g>
  </defs>

  <rect width="1000" height="120" filter="url(#grain)" opacity="0.6" pointer-events="none"/>

  <g filter="url(#glow)">
    <use href="#wavePath" stroke="#FF0000" stroke-width="4" stroke-linecap="round" stroke-dasharray="300 700" x="2" y="-1" opacity="0.8">
      <animate attributeName="stroke-dashoffset" from="1000" to="0" dur="3s" repeatCount="indefinite" />
    </use>
    <use href="#wavePath" stroke="#00FF00" stroke-width="4" stroke-linecap="round" stroke-dasharray="300 700" x="0" y="0" opacity="0.8">
      <animate attributeName="stroke-dashoffset" from="1000" to="0" dur="3s" repeatCount="indefinite" />
    </use>
    <use href="#wavePath" stroke="#0000FF" stroke-width="4" stroke-linecap="round" stroke-dasharray="300 700" x="-2" y="1" opacity="0.8">
      <animate attributeName="stroke-dashoffset" from="1000" to="0" dur="3s" repeatCount="indefinite" />
    </use>
    <use href="#wavePath" stroke="#FFFFFF" stroke-width="1.5" stroke-linecap="round" stroke-dasharray="280 720" opacity="0.9">
      <animate attributeName="stroke-dashoffset" from="1000" to="0" dur="3s" repeatCount="indefinite" />
    </use>
  </g>

  <g transform="translate(500, 60)">
    <g transform="translate(-215, 0)">
      <g transform="translate(0, -18) scale(1.5)" fill="#FFFFFF">
        <use href="#educationHat" />
      </g>
      <text x="50" y="0" dominant-baseline="central" fill="#FFFFFF" 
            style="font-family: 'JetBrains Mono', monospace; font-size: 26px; font-weight: 900; letter-spacing: 10px; text-transform: uppercase;">
    Academic Status
      </text>
    </g>
  </g>
</svg>
